<?xml version="1.0" encoding="UTF-8"?>
<svg id="katman_1" xmlns="http://www.w3.org/2000/svg" version="1.1" viewBox="0 0 250 250">
  <defs>
    <linearGradient id="gradient1" x1="0%" y1="0%" x2="100%" y2="100%">
      <stop offset="0%" stop-color="#3B82F6" />
      <stop offset="50%" stop-color="#6366F1" />
      <stop offset="100%" stop-color="#8B5CF6" />
    </linearGradient>
    <filter id="glow" x="-20%" y="-20%" width="140%" height="140%">
      <feGaussianBlur stdDeviation="4" result="blur" />
      <feComposite in="SourceGraphic" in2="blur" operator="over" />
    </filter>
  </defs>
  <path fill="url(#gradient1)" filter="url(#glow)" d="M137.31,198.86c37.09,4.63,76.07-3.45,105.05-27.59-3.46-16.62-10.65-32.63-20.59-46.27l-22.36,23.5-3.92,2.22c21.91-29.54,34.14-66.25,28.96-103.35-.19-1.03-.98-1.19-1.76-1.6-2.86-1.5-19.37-4.35-23.31-4.66-8.86-.71-18.45.47-27.39-.01,4.78,10.2,9.43,22.06,10.89,33.31.16,1.2,1.24,3.84-.81,3.59C169.59,42.78,141.16,13.79,106.53,0c-5.9,2.51-32.75,39.08-29.64,42.19l19.72,3.22,16.08,5.73c-37.14-4.67-75.99,3.53-105.05,27.59,3.46,16.62,10.65,32.63,20.59,46.27l22.36-23.5,3.92-2.22c-21.97,29.58-34.02,66.22-28.96,103.35.19,1.03,.98,1.19,1.76,1.6,2.86,1.5,19.37,4.35,23.31,4.66,8.86,.71,18.45-.47,27.39,0-4.78-10.2-9.43-22.06-10.89-33.31-.16-1.2-1.24-3.84,.81-3.59,12.48,35.22,40.91,64.21,75.54,78,13.12-11.6,23.16-26.45,30.76-42.19l-22.61-3.69-14.31-5.26ZM98.11,143.06c-9.97,0-18.06-8.09-18.06-18.06s8.09-18.06,18.06-18.06,18.06,8.09,18.06,18.06-8.09,18.06-18.06,18.06ZM151.89,106.94c9.97,0,18.06,8.09,18.06,18.06s-8.09,18.06-18.06,18.06-18.06-8.09-18.06-18.06,8.09-18.06,18.06-18.06Z"/>
</svg>
